<svg width="50" height="51" viewBox="0 0 50 51" fill="none" xmlns="http://www.w3.org/2000/svg">
<g clip-path="url(#clip0_661_1201)">
<path fill-rule="evenodd" clip-rule="evenodd" d="M29.8892 15.623C29.4762 15.623 29.08 15.7871 28.7879 16.0792C28.4958 16.3713 28.3317 16.7675 28.3317 17.1806C28.3317 17.5937 28.4958 17.9899 28.7879 18.282C29.08 18.5741 29.4762 18.7382 29.8892 18.7382H34.8443V21.903H29.8892C29.4762 21.903 29.08 22.0671 28.7879 22.3592C28.4958 22.6513 28.3317 23.0475 28.3317 23.4606C28.3317 23.8737 28.4958 24.2698 28.7879 24.5619C29.08 24.854 29.4762 25.0182 29.8892 25.0182H34.7942C34.5465 27.4225 33.4161 29.6496 31.6216 31.2688C29.827 32.888 27.4958 33.7843 25.0788 33.7843C22.6617 33.7843 20.3305 32.888 18.536 31.2688C16.7414 29.6496 15.611 27.4225 15.3634 25.0182H20.2679C20.681 25.0182 21.0772 24.854 21.3693 24.5619C21.6614 24.2698 21.8255 23.8737 21.8255 23.4606C21.8255 23.0475 21.6614 22.6513 21.3693 22.3592C21.0772 22.0671 20.681 21.903 20.2679 21.903H15.3128V18.7382H20.2679C20.681 18.7382 21.0772 18.5741 21.3693 18.282C21.6614 17.9899 21.8255 17.5937 21.8255 17.1806C21.8255 16.7675 21.6614 16.3713 21.3693 16.0792C21.0772 15.7871 20.681 15.623 20.2679 15.623H15.3128V12.4581H20.2679C20.681 12.4581 21.0772 12.294 21.3693 12.0019C21.6614 11.7098 21.8255 11.3137 21.8255 10.9006C21.8255 10.4875 21.6614 10.0913 21.3693 9.79918C21.0772 9.50708 20.681 9.34298 20.2679 9.34298H15.3634C15.6115 6.93896 16.742 4.71229 18.5365 3.09346C20.331 1.47462 22.662 0.578583 25.0788 0.578583C27.4955 0.578583 29.8265 1.47462 31.621 3.09346C33.4155 4.71229 34.5461 6.93896 34.7942 9.34298H29.8892C29.4762 9.34298 29.08 9.50708 28.7879 9.79918C28.4958 10.0913 28.3317 10.4875 28.3317 10.9006C28.3317 11.3137 28.4958 11.7098 28.7879 12.0019C29.08 12.294 29.4762 12.4581 29.8892 12.4581H34.8443V15.623H29.8892ZM24.1943 39.5229C24.4882 39.5395 24.7821 39.5482 25.0802 39.5482C25.3742 39.5482 25.6681 39.5398 25.962 39.5229V42.4232H24.1943V39.5229ZM40.6086 24.0176C40.6086 23.6047 40.4446 23.2087 40.1526 22.9167C39.8606 22.6247 39.4646 22.4607 39.0517 22.4607C38.6388 22.4607 38.2428 22.6247 37.9508 22.9167C37.6588 23.2087 37.4948 23.6047 37.4948 24.0176C37.4948 30.8639 31.9238 36.4335 25.0807 36.4335C18.233 36.4335 12.662 30.8639 12.662 24.0176C12.6637 23.8121 12.6246 23.6083 12.5471 23.418C12.4696 23.2277 12.3551 23.0546 12.2104 22.9087C12.0657 22.7628 11.8935 22.647 11.7038 22.568C11.5141 22.489 11.3106 22.4483 11.1051 22.4483C10.8996 22.4483 10.6961 22.489 10.5064 22.568C10.3167 22.647 10.1445 22.7628 9.99979 22.9087C9.85505 23.0546 9.74062 23.2277 9.66311 23.418C9.58559 23.6083 9.54652 23.8121 9.54814 24.0176C9.54814 31.2002 14.4486 37.2579 21.0805 39.0256V42.4231H17.7462C16.8147 42.4238 15.9216 42.7941 15.2629 43.4527C14.6042 44.1112 14.2337 45.0042 14.2328 45.9356V48.8617C14.2328 49.2746 14.3968 49.6707 14.6887 49.9628C14.9807 50.2549 15.3767 50.4191 15.7897 50.4192H34.3672C34.7802 50.4191 35.1762 50.2549 35.4681 49.9628C35.7601 49.6707 35.9241 49.2746 35.9241 48.8617V45.9357C35.9231 45.0043 35.5526 44.1113 34.8939 43.4528C34.2352 42.7942 33.3421 42.4239 32.4107 42.4232H29.0764V39.0257C35.7083 37.2578 40.6086 31.2001 40.6086 24.0176Z" fill="white"/>
</g>
<defs>
<clipPath id="clip0_661_1201">
<rect width="49.8425" height="49.8425" fill="white" transform="translate(0.157471 0.57605)"/>
</clipPath>
</defs>
</svg>
