<svg width="42" height="42" viewBox="0 0 42 42" fill="none" xmlns="http://www.w3.org/2000/svg">
<rect x="41.0303" y="0.5" width="40.53" height="40.53" rx="20.265" transform="rotate(90 41.0303 0.5)" stroke="white"/>
<path fill-rule="evenodd" clip-rule="evenodd" d="M11.8535 20.765C11.8535 20.4695 11.9709 20.1862 12.1798 19.9772C12.3887 19.7683 12.6721 19.6509 12.9676 19.6509H25.8754L21.0925 14.8681C20.8958 14.6569 20.7886 14.3776 20.7937 14.0889C20.7988 13.8003 20.9157 13.525 21.1198 13.3209C21.3239 13.1168 21.5993 12.9998 21.8879 12.9947C22.1765 12.9896 22.4559 13.0968 22.667 13.2936L29.3512 19.9777C29.5598 20.1866 29.677 20.4698 29.677 20.765C29.677 21.0602 29.5598 21.3433 29.3512 21.5522L22.667 28.2364C22.4559 28.4332 22.1765 28.5403 21.8879 28.5352C21.5993 28.5301 21.3239 28.4132 21.1198 28.2091C20.9157 28.005 20.7988 27.7296 20.7937 27.441C20.7886 27.1524 20.8958 26.8731 21.0925 26.6619L25.8754 21.879H12.9676C12.6721 21.879 12.3887 21.7616 12.1798 21.5527C11.9709 21.3438 11.8535 21.0604 11.8535 20.765Z" fill="white"/>
</svg>
