<svg width="42" height="42" viewBox="0 0 42 42" fill="none" xmlns="http://www.w3.org/2000/svg">
<rect x="0.5" y="41.0303" width="40.53" height="40.53" rx="20.265" transform="rotate(-90 0.5 41.0303)" stroke="white"/>
<path fill-rule="evenodd" clip-rule="evenodd" d="M29.6767 20.7653C29.6767 21.0608 29.5594 21.3441 29.3504 21.553C29.1415 21.762 28.8582 21.8793 28.5627 21.8793H15.6548L20.4377 26.6622C20.6345 26.8734 20.7416 27.1527 20.7366 27.4413C20.7315 27.7299 20.6145 28.0053 20.4104 28.2094C20.2063 28.4135 19.931 28.5304 19.6423 28.5355C19.3537 28.5406 19.0744 28.4335 18.8632 28.2367L12.1791 21.5525C11.9705 21.3437 11.8533 21.0605 11.8533 20.7653C11.8533 20.4701 11.9705 20.1869 12.1791 19.9781L18.8632 13.2939C19.0744 13.0971 19.3537 12.99 19.6423 12.9951C19.931 13.0002 20.2063 13.1171 20.4104 13.3212C20.6145 13.5253 20.7315 13.8007 20.7366 14.0893C20.7416 14.3779 20.6345 14.6572 20.4377 14.8684L15.6548 19.6513H28.5627C28.8582 19.6513 29.1415 19.7686 29.3504 19.9776C29.5594 20.1865 29.6767 20.4698 29.6767 20.7653Z" fill="white"/>
</svg>
