<svg width="50" height="50" viewBox="0 0 50 50" fill="none" xmlns="http://www.w3.org/2000/svg">
<g clip-path="url(#clip0_942_424)">
<path fill-rule="evenodd" clip-rule="evenodd" d="M29.7318 15.0469C29.3187 15.0469 28.9225 15.211 28.6304 15.5031C28.3383 15.7952 28.1742 16.1914 28.1742 16.6045C28.1742 17.0176 28.3383 17.4137 28.6304 17.7058C28.9225 17.9979 29.3187 18.1621 29.7318 18.1621H34.6868V21.3269H29.7318C29.3187 21.3269 28.9225 21.491 28.6304 21.7831C28.3383 22.0752 28.1742 22.4713 28.1742 22.8844C28.1742 23.2975 28.3383 23.6937 28.6304 23.9858C28.9225 24.2779 29.3187 24.442 29.7318 24.442H34.6367C34.389 26.8464 33.2586 29.0735 31.4641 30.6927C29.6696 32.3119 27.3384 33.2081 24.9213 33.2081C22.5042 33.2081 20.173 32.3119 18.3785 30.6927C16.5839 29.0735 15.4535 26.8464 15.2059 24.442H20.1104C20.5235 24.442 20.9197 24.2779 21.2118 23.9858C21.5039 23.6937 21.668 23.2975 21.668 22.8844C21.668 22.4713 21.5039 22.0752 21.2118 21.7831C20.9197 21.491 20.5235 21.3269 20.1104 21.3269H15.1554V18.1621H20.1104C20.5235 18.1621 20.9197 17.9979 21.2118 17.7058C21.5039 17.4137 21.668 17.0176 21.668 16.6045C21.668 16.1914 21.5039 15.7952 21.2118 15.5031C20.9197 15.211 20.5235 15.0469 20.1104 15.0469H15.1554V11.882H20.1104C20.5235 11.882 20.9197 11.7179 21.2118 11.4258C21.5039 11.1337 21.668 10.7375 21.668 10.3244C21.668 9.91132 21.5039 9.51514 21.2118 9.22304C20.9197 8.93094 20.5235 8.76684 20.1104 8.76684H15.2059C15.454 6.36282 16.5846 4.13615 18.3791 2.51731C20.1735 0.898476 22.5045 0.00244141 24.9213 0.00244141C27.3381 0.00244141 29.669 0.898476 31.4635 2.51731C33.258 4.13615 34.3886 6.36282 34.6367 8.76684H29.7318C29.3187 8.76684 28.9225 8.93094 28.6304 9.22304C28.3383 9.51514 28.1742 9.91132 28.1742 10.3244C28.1742 10.7375 28.3383 11.1337 28.6304 11.4258C28.9225 11.7179 29.3187 11.882 29.7318 11.882H34.6868V15.0469H29.7318ZM24.0369 38.9468C24.3308 38.9633 24.6247 38.9721 24.9228 38.9721C25.2167 38.9721 25.5106 38.9636 25.8045 38.9468V41.8471H24.0369V38.9468ZM40.4511 23.4415C40.4511 23.0285 40.2871 22.6325 39.9951 22.3406C39.7032 22.0486 39.3071 21.8846 38.8942 21.8846C38.4813 21.8846 38.0853 22.0486 37.7933 22.3406C37.5014 22.6325 37.3373 23.0285 37.3373 23.4415C37.3373 30.2878 31.7664 35.8574 24.9232 35.8574C18.0755 35.8574 12.5046 30.2878 12.5046 23.4415C12.5062 23.236 12.4671 23.0322 12.3896 22.8419C12.3121 22.6515 12.1977 22.4784 12.0529 22.3326C11.9082 22.1867 11.736 22.0709 11.5463 21.9919C11.3566 21.9128 11.1531 21.8722 10.9476 21.8722C10.7421 21.8722 10.5386 21.9128 10.3489 21.9919C10.1592 22.0709 9.98705 22.1867 9.84231 22.3326C9.69758 22.4784 9.58315 22.6515 9.50564 22.8419C9.42812 23.0322 9.38905 23.236 9.39067 23.4415C9.39067 30.624 14.2911 36.6817 20.923 38.4495V41.847H17.5887C16.6573 41.8477 15.7642 42.218 15.1054 42.8765C14.4467 43.5351 14.0762 44.4281 14.0753 45.3595V48.2855C14.0753 48.6985 14.2393 49.0946 14.5313 49.3866C14.8232 49.6787 15.2192 49.8429 15.6322 49.8431H34.2097C34.6227 49.8429 35.0187 49.6787 35.3107 49.3866C35.6026 49.0946 35.7666 48.6985 35.7666 48.2855V45.3596C35.7657 44.4282 35.3952 43.5352 34.7365 42.8766C34.0777 42.2181 33.1846 41.8478 32.2532 41.8471H28.9189V38.4496C35.5508 36.6817 40.4511 30.6239 40.4511 23.4415Z" fill="white"/>
</g>
<defs>
<clipPath id="clip0_942_424">
<rect width="49.8425" height="49.8425" fill="white"/>
</clipPath>
</defs>
</svg>
