<svg width="13" height="13" viewBox="0 0 13 13" fill="none" xmlns="http://www.w3.org/2000/svg">
<path fill-rule="evenodd" clip-rule="evenodd" d="M1.05625 12.2991C0.86399 12.1069 0.755982 11.8461 0.755982 11.5742C0.755982 11.3023 0.86399 11.0416 1.05625 10.8493L9.45548 2.45008L3.23096 2.45008C2.9655 2.44071 2.71403 2.32866 2.52955 2.13755C2.34506 1.94643 2.24196 1.69117 2.24196 1.42554C2.24196 1.15991 2.34506 0.904652 2.52955 0.713538C2.71403 0.522425 2.9655 0.410381 3.23096 0.40101L11.9298 0.401011C12.2015 0.40118 12.462 0.509176 12.6541 0.701276C12.8462 0.893377 12.9542 1.15387 12.9544 1.42554L12.9544 10.1244C12.945 10.3899 12.8329 10.6413 12.6418 10.8258C12.4507 11.0103 12.1955 11.1134 11.9298 11.1134C11.6642 11.1134 11.4089 11.0103 11.2178 10.8258C11.0267 10.6413 10.9147 10.3899 10.9053 10.1244L10.9053 3.89989L2.50606 12.2991C2.3138 12.4914 2.05304 12.5994 1.78115 12.5994C1.50926 12.5994 1.2485 12.4914 1.05625 12.2991Z" fill="white"/>
</svg>
