<svg width="74" height="65" viewBox="0 0 74 65" fill="none" xmlns="http://www.w3.org/2000/svg">
<path d="M73.3566 33.0888C72.5583 31.6697 70.6956 31.1375 69.1877 32.0244L59.0762 37.8784L56.5039 39.3862V53.4002L58.8988 54.8193C58.9875 54.8193 58.9875 54.908 59.0762 54.908L69.0104 60.6732C69.4538 61.028 70.0747 61.2054 70.6956 61.2054C72.3809 61.2054 73.7113 59.875 73.7113 58.1897V46.3045L73.8 34.5966C73.8 34.0645 73.7113 33.5323 73.3566 33.0888Z" fill="#BFBFBF" fill-opacity="0.4"/>
<path d="M14.2813 28.5601C22.1755 28.5601 28.5617 22.174 28.5617 14.28C28.5617 6.38611 22.1755 0 14.2813 0C6.38717 0 0.000900562 6.38611 0.000900562 14.28C-0.0877977 22.174 6.38717 28.5601 14.2813 28.5601ZM14.2813 8.42611C17.5631 8.42611 20.1354 11.087 20.1354 14.28C20.1354 17.5618 17.4745 20.134 14.2813 20.134C11.0882 20.134 8.42723 17.4731 8.42723 14.28C8.33853 10.9983 10.9995 8.42611 14.2813 8.42611Z" fill="#BFBFBF" fill-opacity="0.4"/>
<path d="M50.4788 29.3621C48.1726 30.5151 45.6004 31.2247 42.8507 31.2247C39.4802 31.2247 36.2871 30.249 33.6261 28.4751H23.5145C20.8536 30.249 17.6604 31.2247 14.2899 31.2247C11.5403 31.2247 8.96802 30.6038 6.66187 29.3621C4.62181 30.5151 3.20264 32.8212 3.20264 35.3047V56.9465C3.20264 60.9378 6.48447 64.1309 10.3872 64.1309H46.8421C50.8336 64.1309 54.0267 60.8491 54.0267 56.9465V35.3047C53.938 32.8212 52.5188 30.5151 50.4788 29.3621Z" fill="#BFBFBF" fill-opacity="0.4"/>
<path d="M42.8512 28.5601C50.7454 28.5601 57.1316 22.174 57.1316 14.28C57.1316 6.38611 50.7454 0 42.8512 0C34.9571 0 28.5708 6.38611 28.5708 14.28C28.5708 22.174 34.9571 28.5601 42.8512 28.5601ZM42.8512 8.42611C46.133 8.42611 48.7053 11.087 48.7053 14.28C48.7053 17.5618 46.0443 20.134 42.8512 20.134C39.6581 20.134 36.9971 17.4731 36.9971 14.28C36.9971 10.9983 39.5694 8.42611 42.8512 8.42611Z" fill="#BFBFBF" fill-opacity="0.4"/>
</svg>
